#N canvas 640 83 328 451 10;
#X declare -path Fraise;
#X declare -path color;
#X declare -path AutoPreset;
#X obj 15 16 declare -path Fraise;
#N canvas 811 47 808 697 dmx 0;
#X floatatom 244 202 8 0 255 0 - - - 0;
#X obj 247 172 hsl 128 15 0 255 0 0 empty empty value -2 -8 0 10 #fcfcfc #000000 #000000 0 1;
#X floatatom 309 202 8 1 255 1 channel - - 0;
#X msg 244 262 c 30 i \$2 c \$1;
#X obj 244 231 pack f 1;
#X obj 17 16 r couleur;
#X obj 24 48 unpack f f f f f, f 23;
#X obj 24 90 +, f 6;
#X obj 24 134 t f f f, f 23;
#X obj 24 155 + 1;
#X obj 91 156 + 2;
#X obj 159 155 + 3;
#X obj 24 111 +;
#X obj 24 179 pack f f;
#X obj 91 177 pack f f;
#X obj 159 176 pack f f;
#X obj 24 205 t a;
#X obj 287 384 spigot;
#X obj 287 405 print;
#X obj 339 382 tgl 16 0 empty empty empty 0 -8 0 10 #fcfcfc #000000 #000000 0 1;
#X obj 24 69 * 15;
#X obj 57 70 * 3;
#X obj 80 112 i;
#X obj 130 113 i;
#X obj 181 112 i;
#X obj 10 370 fruit/send2 sapin1;
#X obj 10 245 pack f f f f;
#X msg 10 268 c 31 c \$1 c \$2 c \$3 c \$4;
#X obj 510 9 r tacheMetro2;
#X obj 510 105 t b f, f 6;
#X obj 510 193 colget 0;
#X obj 510 147 t f f, f 12;
#X obj 510 214 list prepend;
#X obj 510 325 list append;
#X obj 543 303 list append;
#X obj 576 283 list append;
#X obj 609 260 list append;
#X msg 510 126 0 \, 1 \, 2 \, 3 \, 4;
#X obj 510 235 route 0 1 2 3 4, f 28;
#X obj 510 346 list prepend, f 32;
#X obj 699 217 * 15;
#X obj 699 238 + 1;
#X obj 529 400 t a a, f 6;
#X obj 562 422 list split 1;
#X msg 562 504 c \$1;
#X obj 510 375 t b a b;
#X obj 529 530 list split 1;
#X obj 531 569 list prepend;
#X obj 531 590 t a;
#X msg 569 594 list;
#X obj 510 614 list;
#X obj 562 443 i;
#X obj 510 635 list prepend c 31;
#X obj 510 656 list trim;
#N canvas 886 92 450 426 lamp 0;
#X obj 112 144 hsl 80 16 0 255 0 0 empty empty empty -2 -8 0 10 #fc0400 #000000 #000000 0 1;
#X obj 112 163 hsl 80 16 0 255 0 0 empty empty empty -2 -8 0 10 #00fc04 #000000 #000000 0 1;
#X obj 110 121 nbx 2 20 0 19 0 0 empty empty empty 0 -8 0 15 #fcfcfc #000000 #000000 0 256;
#X obj 113 182 hsl 80 16 0 255 0 0 empty empty empty -2 -8 0 10 #0400fc #000000 #000000 0 1;
#X obj 25 245 pack f f f;
#X obj 57 218 t b f;
#X obj 97 217 t b f;
#X obj 25 307 list prepend;
#X obj 105 258 * 3;
#X obj 105 279 + 1;
#X msg 25 328 c 31 c \$1 c \$2 c \$3 c \$4;
#X obj 25 353 outlet;
#X obj 201 259 print;
#X connect 0 0 4 0;
#X connect 1 0 5 0;
#X connect 2 0 8 0;
#X connect 3 0 6 0;
#X connect 4 0 7 0;
#X connect 5 0 4 0;
#X connect 5 1 4 1;
#X connect 6 0 4 0;
#X connect 6 1 4 2;
#X connect 7 0 10 0;
#X connect 8 0 9 0;
#X connect 9 0 7 1;
#X connect 10 0 11 0;
#X coords 0 -1 1 1 100 100 1 100 100;
#X restore 381 54 pd lamp;
#X obj 562 473 clip 0 255;
#X obj 602 40 del 2;
#X obj 640 40 del 4;
#X obj 681 40 del 6;
#X msg 681 67 3;
#X msg 640 67 2;
#X msg 602 67 1;
#X obj 611 8 b;
#X msg 510 30 0;
#X msg 555 170 symbol \$1-B;
#X connect 0 0 4 0;
#X connect 1 0 0 0;
#X connect 2 0 4 1;
#X connect 3 0 25 0;
#X connect 4 0 3 0;
#X connect 6 0 20 0;
#X connect 6 1 21 0;
#X connect 6 2 22 0;
#X connect 6 3 23 0;
#X connect 6 4 24 0;
#X connect 7 0 12 0;
#X connect 8 0 9 0;
#X connect 8 1 10 0;
#X connect 8 2 11 0;
#X connect 9 0 13 0;
#X connect 9 0 26 0;
#X connect 10 0 14 0;
#X connect 11 0 15 0;
#X connect 12 0 8 0;
#X connect 13 0 16 0;
#X connect 14 0 16 0;
#X connect 15 0 16 0;
#X connect 17 0 18 0;
#X connect 19 0 17 1;
#X connect 20 0 7 0;
#X connect 21 0 7 1;
#X connect 22 0 13 1;
#X connect 22 0 26 1;
#X connect 23 0 14 1;
#X connect 23 0 26 2;
#X connect 24 0 15 1;
#X connect 24 0 26 3;
#X connect 26 0 27 0;
#X connect 27 0 25 0;
#X connect 28 0 63 0;
#X connect 28 0 62 0;
#X connect 29 0 37 0;
#X connect 29 1 40 0;
#X connect 29 1 64 0;
#X connect 30 0 32 0;
#X connect 31 0 30 0;
#X connect 31 1 32 1;
#X connect 32 0 38 0;
#X connect 33 0 39 0;
#X connect 34 0 33 1;
#X connect 35 0 34 1;
#X connect 36 0 35 1;
#X connect 37 0 31 0;
#X connect 38 0 33 0;
#X connect 38 1 34 0;
#X connect 38 2 35 0;
#X connect 38 3 36 0;
#X connect 38 4 36 1;
#X connect 39 0 45 0;
#X connect 40 0 41 0;
#X connect 41 0 39 1;
#X connect 42 0 46 0;
#X connect 42 1 43 0;
#X connect 43 0 51 0;
#X connect 44 0 47 0;
#X connect 45 0 50 0;
#X connect 45 1 42 0;
#X connect 45 2 49 0;
#X connect 46 1 42 0;
#X connect 47 0 48 0;
#X connect 48 0 47 1;
#X connect 48 0 50 1;
#X connect 49 0 48 0;
#X connect 50 0 52 0;
#X connect 51 0 55 0;
#X connect 52 0 17 0;
#X connect 52 0 53 0;
#X connect 53 0 25 0;
#X connect 54 0 25 0;
#X connect 55 0 44 0;
#X connect 56 0 61 0;
#X connect 57 0 60 0;
#X connect 58 0 59 0;
#X connect 59 0 29 0;
#X connect 60 0 29 0;
#X connect 61 0 29 0;
#X connect 62 0 56 0;
#X connect 62 0 57 0;
#X connect 62 0 58 0;
#X connect 63 0 29 0;
#X connect 64 0 30 1;
#X restore 13 281 pd dmx;
#N canvas 465 388 1055 476 compute_color 0;
#X obj 38 147 tgl 16 0 empty empty empty 0 -8 0 10 #fcfcfc #000000 #000000 0 1;
#X obj 341 17 clone lumEtage 4;
#X obj 417 441 s lumParams;
#X msg 192 198 rndCrepit \$1;
#X msg 294 156 0;
#X msg 274 155 200;
#X obj 496 16 loadbang;
#X msg 502 60 rnd 40 \, filt 0.99 \, rndCrepit 600;
#X msg 496 81 rnd 120 \, filt 0.995 \, rndCrepit 1000;
#X msg 496 40 rnd 10 \, filt 0.97 \, rndCrepit 300;
#X obj 36 19 declare -path color;
#X obj 125 216 s tacheMetro;
#X obj 38 222 s tacheMetro2;
#X obj 870 152 hsl 136 16 -5 5 0 0 empty empty empty -2 -8 0 10 #fcfcfc #000000 #000000 0 1;
#X obj 506 179 t f f f f;
#X obj 523 212 pipe 1000;
#X obj 565 240 pipe 2000;
#X obj 605 263 pipe 3000;
#X msg 506 295 0 \$1;
#X msg 540 295 1 \$1;
#X msg 573 295 2 \$1;
#X msg 607 295 3 \$1;
#X msg 507 344 rot \$1 \$2;
#X obj 574 190 * 1;
#X obj 616 218 * 2;
#X obj 656 240 * 3;
#X obj 616 196 f;
#X obj 38 190 t b b, f 15;
#X obj 24 244 s LFOrnd-bang;
#X msg 616 176 300;
#X obj 506 130 LFOrnd 0.001;
#X obj 616 155 loadbang;
#X msg 175 290 upmix \$1;
#X obj 197 269 hsl 136 16 0 1 0 0 empty empty empty -2 -8 0 10 #fcfcfc #000000 #000000 0 1;
#X msg 27 308 uptime \$1;
#X msg 111 287 500;
#X msg 26 286 100;
#X msg 532 159 0;
#X msg 565 156 1000;
#X msg 52 286 200;
#X msg 83 287 350;
#X obj 882 182 hsl 136 16 0 3 0 0 empty empty empty -2 -8 0 10 #fcfcfc #000000 #000000 0 1;
#X obj 879 203 t b f;
#X obj 867 232 pack f f;
#X msg 867 253 point \$1 \$2;
#X obj 715 373 hsl 136 16 0 1 0 0 empty empty empty -2 -8 0 10 #fcfcfc #000000 #000000 0 1;
#X msg 698 399 pointMix \$1;
#X floatatom 964 233 5 0 0 0 - - - 0;
#X obj 855 127 fmod 5;
#X obj 931 126 fmod 4;
#X obj 856 39 f;
#X msg 856 10 0.001;
#X msg 815 11 0.002;
#X obj 855 104 * 100;
#X obj 931 102 * 100;
#X msg 745 7 0.01;
#X msg 703 7 0.02;
#X msg 777 10 0.005;
#X obj 855 78 LFOrnd 0.01;
#X obj 931 76 LFOrnd 0.01;
#X msg 775 400 pointGain 350;
#X msg 272 178 50;
#X msg 371 127 0;
#X msg 381 166 200;
#X msg 377 148 50;
#X msg 353 200 rnd \$1;
#X msg 703 263 filt \$1;
#X obj 703 240 change;
#X obj 38 38 loadbang;
#X obj 104 166 bng 16 250 50 0 empty empty empty 0 -8 0 10 #fcfcfc #000000 #000000;
#X msg 115 132 10;
#X msg 147 131 20;
#X obj 38 81 s SEQ_ON;
#X obj 38 59 1;
#X obj 591 107 r param_rot-snd;
#X obj 591 129 * 1000;
#X obj 506 155 * 0;
#X obj 192 39 sel 0;
#X msg 192 60 0;
#X obj 222 58 * -1;
#X obj 222 79 + 1;
#X obj 222 100 pow 2;
#X obj 222 121 * 1000;
#X obj 222 142 + 2;
#X obj 192 18 r param_crepite-snd;
#X obj 330 73 * -1;
#X obj 330 94 + 1;
#X obj 330 115 pow 2;
#X obj 330 136 * 1000;
#X obj 330 50 r param_fireSpeed-snd;
#X obj 330 158 + 1;
#X obj 703 131 r param_fireSmooth-snd;
#X obj 703 152 pow 0.2;
#X obj 703 172 * 0.3;
#X obj 703 194 + 0.7;
#X obj 703 217 clip 0.5 0.9999;
#X obj 902 8 r param_speedPoint-snd;
#X obj 902 29 pow 2;
#X obj 902 50 * 0.02;
#X obj 697 308 r param_fireMix-snd;
#X msg 697 329 fireMix \$1;
#X obj 698 351 r param_pointMix-snd;
#X obj 175 244 r param_upMix-snd;
#X msg 113 367 gain \$1;
#X obj 116 344 hsl 128 15 0 3 0 0 empty empty empty -2 -8 0 10 #fcfcfc #000000 #000000 0 1;
#X obj 113 322 r MASTER_GAIN;
#X obj 38 105 loadbang;
#X obj 38 124 del 5000;
#X obj 38 169 metro 12;
#X connect 0 0 108 0;
#X connect 3 0 2 0;
#X connect 4 0 3 0;
#X connect 5 0 3 0;
#X connect 6 0 9 0;
#X connect 7 0 2 0;
#X connect 8 0 2 0;
#X connect 9 0 2 0;
#X connect 13 0 43 0;
#X connect 14 0 18 0;
#X connect 14 1 15 0;
#X connect 14 2 16 0;
#X connect 14 3 17 0;
#X connect 15 0 19 0;
#X connect 16 0 20 0;
#X connect 17 0 21 0;
#X connect 18 0 22 0;
#X connect 19 0 22 0;
#X connect 20 0 22 0;
#X connect 21 0 22 0;
#X connect 22 0 2 0;
#X connect 23 0 15 1;
#X connect 24 0 16 1;
#X connect 25 0 17 1;
#X connect 26 0 23 0;
#X connect 26 0 24 0;
#X connect 26 0 25 0;
#X connect 27 0 12 0;
#X connect 27 0 28 0;
#X connect 27 1 11 0;
#X connect 29 0 26 0;
#X connect 30 0 76 0;
#X connect 31 0 29 0;
#X connect 32 0 2 0;
#X connect 33 0 32 0;
#X connect 34 0 2 0;
#X connect 35 0 34 0;
#X connect 36 0 34 0;
#X connect 37 0 76 1;
#X connect 38 0 76 1;
#X connect 39 0 34 0;
#X connect 40 0 34 0;
#X connect 41 0 42 0;
#X connect 42 0 43 0;
#X connect 42 1 43 1;
#X connect 43 0 44 0;
#X connect 44 0 2 0;
#X connect 45 0 46 0;
#X connect 46 0 2 0;
#X connect 48 0 43 0;
#X connect 49 0 43 1;
#X connect 50 0 58 0;
#X connect 50 0 59 0;
#X connect 51 0 50 0;
#X connect 52 0 50 0;
#X connect 53 0 48 0;
#X connect 54 0 49 0;
#X connect 55 0 50 0;
#X connect 56 0 50 0;
#X connect 57 0 50 0;
#X connect 58 0 53 0;
#X connect 59 0 54 0;
#X connect 60 0 2 0;
#X connect 61 0 3 0;
#X connect 62 0 65 0;
#X connect 63 0 65 0;
#X connect 64 0 65 0;
#X connect 65 0 2 0;
#X connect 66 0 2 0;
#X connect 67 0 66 0;
#X connect 68 0 73 0;
#X connect 69 0 27 0;
#X connect 70 0 108 1;
#X connect 71 0 108 1;
#X connect 73 0 72 0;
#X connect 74 0 75 0;
#X connect 75 0 76 1;
#X connect 76 0 14 0;
#X connect 77 0 78 0;
#X connect 77 1 79 0;
#X connect 78 0 3 0;
#X connect 79 0 80 0;
#X connect 80 0 81 0;
#X connect 81 0 82 0;
#X connect 82 0 83 0;
#X connect 83 0 3 0;
#X connect 84 0 77 0;
#X connect 85 0 86 0;
#X connect 86 0 87 0;
#X connect 87 0 88 0;
#X connect 88 0 90 0;
#X connect 89 0 85 0;
#X connect 90 0 65 0;
#X connect 91 0 92 0;
#X connect 92 0 93 0;
#X connect 93 0 94 0;
#X connect 94 0 95 0;
#X connect 95 0 67 0;
#X connect 96 0 97 0;
#X connect 97 0 98 0;
#X connect 98 0 59 0;
#X connect 98 0 58 0;
#X connect 99 0 100 0;
#X connect 100 0 2 0;
#X connect 101 0 46 0;
#X connect 102 0 32 0;
#X connect 103 0 2 0;
#X connect 104 0 103 0;
#X connect 105 0 104 0;
#X connect 106 0 107 0;
#X connect 107 0 0 0;
#X connect 108 0 27 0;
#X restore 13 257 pd compute_color;
#X obj 15 331 pdcontrol;
#X msg 15 310 dir;
#X msg 15 355 \; pd open pof_visu.pd \$1;
#X obj 250 48 tgl 30 0 SEQ_ON SEQ_ON SEQ_ON 0 -8 0 10 #00fc04 #000000 #000000 0 1;
#N canvas 664 177 1039 548 presets 0;
#X obj 21 7 declare -path AutoPreset;
#X obj 22 39 apmaster PRESETS;
#X obj 50 140 hradio 15 1 0 16 empty empty 0--1--2--3--4--5--6--7--8--9-10-11-12-13-14-15 6 -6 0 9 #00fc04 #000000 #000000 0;
#X obj 50 159 hradio 15 1 0 16 empty empty empty 0 -8 0 10 #fc0400 #000000 #000000 0;
#X msg 50 186 _all_ load \$1;
#X msg 172 187 _all_ store \$1;
#X obj 50 211 s PRESETS-pattern-snd;
#X obj 22 83 bng 15 250 50 0 empty empty load 17 7 0 10 #00fc04 #000000 #000000;
#X obj 211 81 bng 15 250 50 0 empty empty save 17 7 0 10 #fc0400 #000000 #000000;
#X obj 22 62 loadbang;
#X obj 22 106 apmasterfile PRESETS presets.txt;
#X obj 826 143 hsl 200 15 0 1 0 0 empty empty empty -2 -6 0 8 #fcfcc4 #000000 #000000 0 1;
#X floatatom 823 162 5 0 0 0 - - - 0;
#X text 868 162 interpolate between patterns 0 and 3 :;
#X obj 823 278 s PRESETS-pattern-snd;
#X obj 823 257 list trim;
#X obj 20 250 param rot;
#X msg 823 182 A 0 \, B 1 \, pos \$1;
#X obj 823 237 list prepend _all_;
#X obj 233 250 param fireSpeed;
#X obj 126 250 param crepite;
#X obj 232 305 param fireSmooth;
#X obj 395 303 param speedPoint;
#X obj 232 361 param fireMix;
#X obj 395 248 param pointMix;
#X obj 20 307 param upMix;
#X floatatom 16 140 5 0 0 0 - - - 0;
#X obj 572 99 tgl 15 0 empty empty auto-rnd 17 7 0 10 #fc8000 #000000 #000000 0 1;
#X obj 597 42 loadbang;
#X obj 591 143 t b b b, f 28;
#X obj 673 166 random 11;
#X obj 756 165 f;
#X obj 591 187 t f f;
#X obj 673 187 pack f f, f 14;
#X obj 833 211 r ALL_PRESETS;
#X msg 673 209 A \$2 \, B \$1 \, pos 0;
#X msg 619 209 0 \, 1 \$1;
#X obj 619 230 line;
#X msg 619 251 pos \$1;
#X obj 619 274 s ALL_PRESETS;
#X obj 591 295 del;
#X obj 591 316 random 10000;
#X obj 562 341 del;
#X msg 551 143 stop;
#X obj 572 119 sel 0 1;
#X floatatom 730 340 5 0 0 0 - - - 0;
#X floatatom 768 342 5 0 0 0 - - - 0;
#X obj 310 140 loadbang;
#X obj 724 110 + 1;
#X msg 310 161 12;
#X obj 591 166 random 20000;
#X floatatom 630 187 5 0 0 0 - - - 0;
#X obj 623 359 hsl 200 15 0 1 0 0 empty empty empty -2 -6 0 8 #fcfcc4 #000000 #000000 0 1;
#X floatatom 15 158 5 0 0 0 - - - 0;
#X obj 310 180 s MAX_PATTERNS;
#X obj 724 81 r MAX_PATTERNS;
#X obj 572 77 r SEQ_ON;
#X obj 25 436 param etoileCrepite;
#X obj 166 436 parami etoileBackground;
#X obj 337 436 param etoileBoules;
#X connect 2 0 4 0;
#X connect 2 0 26 0;
#X connect 3 0 5 0;
#X connect 3 0 53 0;
#X connect 4 0 6 0;
#X connect 5 0 6 0;
#X connect 7 0 10 0;
#X connect 8 0 10 1;
#X connect 9 0 7 0;
#X connect 11 0 12 0;
#X connect 12 0 17 0;
#X connect 15 0 14 0;
#X connect 17 0 18 0;
#X connect 18 0 15 0;
#X connect 27 0 44 0;
#X connect 29 0 50 0;
#X connect 29 1 30 0;
#X connect 29 2 31 0;
#X connect 30 0 31 1;
#X connect 30 0 33 0;
#X connect 30 0 45 0;
#X connect 31 0 33 1;
#X connect 31 0 46 0;
#X connect 32 0 40 0;
#X connect 32 1 36 0;
#X connect 32 1 51 0;
#X connect 33 0 35 0;
#X connect 34 0 18 0;
#X connect 35 0 39 0;
#X connect 36 0 37 0;
#X connect 37 0 38 0;
#X connect 37 0 52 0;
#X connect 38 0 39 0;
#X connect 40 0 41 0;
#X connect 41 0 42 0;
#X connect 42 0 29 0;
#X connect 43 0 42 0;
#X connect 43 0 40 0;
#X connect 43 0 37 0;
#X connect 44 0 43 0;
#X connect 44 1 29 0;
#X connect 47 0 49 0;
#X connect 48 0 30 1;
#X connect 49 0 54 0;
#X connect 50 0 32 0;
#X connect 55 0 48 0;
#X connect 56 0 27 0;
#X restore 130 256 pd presets;
#X obj 245 105 vsl 40 128 0.5 3 0 1 MASTER_GAIN MASTER_GAIN MASTER_GAIN 0 -9 0 10 #fc8000 #000000 #000000 9000 1;
#X obj 15 39 pied/pied 1;
#X obj 174 311 etoile;
#X obj 16 117 fruit/fruit 1 sapin1 100 sapinFw;
#X connect 3 0 5 0;
#X connect 4 0 3 0;
#X coords 0 0 0.00203252 0.00161812 280 45 0;
