#N canvas 1022 135 343 401 10;
#X declare -path Fraise;
#X declare -path color;
#X obj 41 20 pied/pied 0 12346;
#X obj 41 -3 declare -path Fraise;
#X obj 42 98 fruit/fruit 1 sapin1 100 sapinFw;
#N canvas 359 81 916 662 dmx 0;
#X floatatom 244 192 8 0 255 0 - - -;
#X obj 247 162 hsl 128 15 0 255 0 0 empty empty value -2 -8 0 10 -262144
-1 -1 0 1;
#X floatatom 309 192 8 1 255 1 channel - -;
#X msg 244 252 c 30 i \$2 c \$1;
#X obj 244 221 pack f 1;
#X obj 17 6 r couleur;
#X obj 24 38 unpack f f f f f, f 23;
#X obj 24 80 +, f 6;
#X obj 24 124 t f f f, f 23;
#X obj 24 145 + 1;
#X obj 91 146 + 2;
#X obj 159 145 + 3;
#X obj 24 101 +;
#X obj 24 169 pack f f;
#X obj 91 167 pack f f;
#X obj 159 166 pack f f;
#X obj 24 195 t a;
#X obj 287 374 spigot;
#X obj 287 395 print;
#X obj 339 372 tgl 16 0 empty empty empty 0 -8 0 10 -262144 -1 -1 0
1;
#X obj 24 59 * 15;
#X obj 57 60 * 3;
#X obj 80 102 i;
#X obj 130 103 i;
#X obj 181 102 i;
#X obj 10 360 fruit/send2 sapin1;
#X obj 10 235 pack f f f f;
#X msg 10 258 c 31 c \$1 c \$2 c \$3 c \$4;
#X obj 510 -1 r tacheMetro2;
#X obj 510 95 t b f, f 6;
#X obj 510 159 colget 0;
#X obj 510 137 t f f, f 12;
#X obj 510 180 list prepend;
#X obj 510 291 list append;
#X obj 543 269 list append;
#X obj 576 249 list append;
#X obj 609 226 list append;
#X msg 510 116 0 \, 1 \, 2 \, 3 \, 4;
#X obj 510 201 route 0 1 2 3 4, f 28;
#X obj 510 312 list prepend, f 32;
#X obj 699 183 * 15;
#X obj 699 204 + 1;
#X obj 529 366 t a a, f 6;
#X obj 562 388 list split 1;
#X msg 562 470 c \$1;
#X obj 510 341 t b a b;
#X obj 529 496 list split 1;
#X obj 531 535 list prepend;
#X obj 531 556 t a;
#X msg 569 560 list;
#X obj 510 580 list;
#X obj 562 409 i;
#X obj 510 601 list prepend c 31;
#X obj 510 622 list trim;
#N canvas 886 92 450 426 lamp 0;
#X obj 112 144 hsl 80 16 0 255 0 0 empty empty empty -2 -8 0 10 -258113
-1 -1 0 1;
#X obj 112 163 hsl 80 16 0 255 0 0 empty empty empty -2 -8 0 10 -4034
-1 -1 0 1;
#X obj 110 121 nbx 2 20 0 19 0 0 empty empty empty 0 -8 0 15 -262144
-1 -1 0 256;
#X obj 113 182 hsl 80 16 0 255 0 0 empty empty empty -2 -8 0 10 -4160
-1 -1 0 1;
#X obj 25 245 pack f f f;
#X obj 57 218 t b f;
#X obj 97 217 t b f;
#X obj 25 307 list prepend;
#X obj 105 258 * 3;
#X obj 105 279 + 1;
#X msg 25 328 c 31 c \$1 c \$2 c \$3 c \$4;
#X obj 25 353 outlet;
#X obj 201 259 print;
#X connect 0 0 4 0;
#X connect 1 0 5 0;
#X connect 2 0 8 0;
#X connect 3 0 6 0;
#X connect 4 0 7 0;
#X connect 5 0 4 0;
#X connect 5 1 4 1;
#X connect 6 0 4 0;
#X connect 6 1 4 2;
#X connect 7 0 10 0;
#X connect 8 0 9 0;
#X connect 9 0 7 1;
#X connect 10 0 11 0;
#X coords 0 -1 1 1 100 100 1 100 100;
#X restore 381 44 pd lamp;
#X obj 562 439 clip 0 255;
#X obj 602 30 del 2;
#X obj 640 30 del 4;
#X obj 681 30 del 6;
#X msg 681 57 3;
#X msg 640 57 2;
#X msg 602 57 1;
#X obj 611 -2 b;
#X msg 510 20 0;
#X connect 0 0 4 0;
#X connect 1 0 0 0;
#X connect 2 0 4 1;
#X connect 3 0 25 0;
#X connect 4 0 3 0;
#X connect 6 0 20 0;
#X connect 6 1 21 0;
#X connect 6 2 22 0;
#X connect 6 3 23 0;
#X connect 6 4 24 0;
#X connect 7 0 12 0;
#X connect 8 0 9 0;
#X connect 8 1 10 0;
#X connect 8 2 11 0;
#X connect 9 0 13 0;
#X connect 9 0 26 0;
#X connect 10 0 14 0;
#X connect 11 0 15 0;
#X connect 12 0 8 0;
#X connect 13 0 16 0;
#X connect 14 0 16 0;
#X connect 15 0 16 0;
#X connect 17 0 18 0;
#X connect 19 0 17 1;
#X connect 20 0 7 0;
#X connect 21 0 7 1;
#X connect 22 0 13 1;
#X connect 22 0 26 1;
#X connect 23 0 14 1;
#X connect 23 0 26 2;
#X connect 24 0 15 1;
#X connect 24 0 26 3;
#X connect 26 0 27 0;
#X connect 27 0 25 0;
#X connect 28 0 63 0;
#X connect 28 0 62 0;
#X connect 29 0 37 0;
#X connect 29 1 30 1;
#X connect 29 1 40 0;
#X connect 30 0 32 0;
#X connect 31 0 30 0;
#X connect 31 1 32 1;
#X connect 32 0 38 0;
#X connect 33 0 39 0;
#X connect 34 0 33 1;
#X connect 35 0 34 1;
#X connect 36 0 35 1;
#X connect 37 0 31 0;
#X connect 38 0 33 0;
#X connect 38 1 34 0;
#X connect 38 2 35 0;
#X connect 38 3 36 0;
#X connect 38 4 36 1;
#X connect 39 0 45 0;
#X connect 40 0 41 0;
#X connect 41 0 39 1;
#X connect 42 0 46 0;
#X connect 42 1 43 0;
#X connect 43 0 51 0;
#X connect 44 0 47 0;
#X connect 45 0 50 0;
#X connect 45 1 42 0;
#X connect 45 2 49 0;
#X connect 46 1 42 0;
#X connect 47 0 48 0;
#X connect 48 0 47 1;
#X connect 48 0 50 1;
#X connect 49 0 48 0;
#X connect 50 0 52 0;
#X connect 51 0 55 0;
#X connect 52 0 17 0;
#X connect 52 0 53 0;
#X connect 53 0 25 0;
#X connect 54 0 25 0;
#X connect 55 0 44 0;
#X connect 56 0 61 0;
#X connect 57 0 60 0;
#X connect 58 0 59 0;
#X connect 59 0 29 0;
#X connect 60 0 29 0;
#X connect 61 0 29 0;
#X connect 62 0 56 0;
#X connect 62 0 57 0;
#X connect 62 0 58 0;
#X connect 63 0 29 0;
#X restore 251 101 pd dmx;
#N canvas 421 81 1364 662 compute_color 1;
#X obj 38 147 tgl 16 0 empty empty empty 0 -8 0 10 -262144 -1 -1 1
1;
#X obj 37 301 clone lumEtage 4;
#X obj 419 497 s lumParams;
#X msg 281 280 rnd 20;
#X msg 212 230 rndCrepit \$1;
#X msg 254 171 0;
#X msg 284 173 200;
#X obj 301 31 loadbang;
#X msg 510 57 rnd 40 \, filt 0.99 \, rndCrepit 600;
#X msg 574 82 rnd 120 \, filt 0.995 \, rndCrepit 1000;
#X msg 301 59 rnd 10 \, filt 0.97 \, rndCrepit 300;
#X obj 36 19 declare -path color;
#X obj 125 216 s tacheMetro;
#X obj 38 222 s tacheMetro2;
#X obj 882 164 hsl 136 16 -5 5 0 0 empty empty empty -2 -8 0 10 -262144
-1 -1 0 1;
#X obj 560 242 t f f f f;
#X obj 577 275 pipe 1000;
#X obj 619 303 pipe 2000;
#X obj 659 326 pipe 3000;
#X msg 560 358 0 \$1;
#X msg 594 358 1 \$1;
#X msg 627 358 2 \$1;
#X msg 661 358 3 \$1;
#X msg 561 407 rot \$1 \$2;
#X obj 628 253 * 1;
#X obj 670 281 * 2;
#X obj 709 303 * 3;
#X obj 685 223 f;
#X obj 38 190 t b b, f 15;
#X obj 16 260 s LFOrnd-bang;
#X floatatom 928 471 14 0 0 0 - - -;
#X msg 685 203 300;
#X obj 560 193 LFOrnd 0.001;
#X obj 560 219 * 1000;
#X obj 685 182 loadbang;
#X msg 215 453 upmix \$1;
#X obj 237 432 hsl 136 16 0 1 0 0 empty empty empty -2 -8 0 10 -262144
-1 -1 13500 1;
#X msg 113 455 uptime \$1;
#X msg 120 431 500;
#X msg 10 431 100;
#X msg 600 149 0;
#X msg 634 148 1000;
#X msg 50 427 200;
#X msg 85 428 350;
#X obj 917 192 hsl 136 16 0 3 0 0 empty empty empty -2 -8 0 10 -262144
-1 -1 0 1;
#X obj 914 213 t b f;
#X obj 879 244 pack f f;
#X msg 879 265 point \$1 \$2;
#X obj 946 402 hsl 136 16 0 1 0 0 empty empty empty -2 -8 0 10 -262144
-1 -1 0 1;
#X msg 882 429 pointMix \$1;
#X floatatom 976 245 5 0 0 0 - - -;
#X obj 855 127 fmod 5;
#X obj 942 129 fmod 4;
#X obj 901 39 f;
#X msg 904 6 0.001;
#X msg 849 10 0.002;
#X floatatom 799 174 5 0 0 0 - - -;
#X obj 855 104 * 100;
#X obj 942 105 * 100;
#X msg 718 13 0.01;
#X msg 676 13 0.02;
#X msg 771 11 0.005;
#X obj 855 78 LFOrnd 0.01;
#X obj 942 79 LFOrnd 0.01;
#X msg 796 493 pointGain 350;
#X obj 882 333 sin;
#X obj 882 312 * 50;
#X obj 882 291 LFOrnd 0.005;
#X floatatom 956 348 5 0 0 0 - - -;
#X obj 212 46 sin;
#X obj 212 67 + 1;
#X obj 212 88 / 2;
#X obj 212 4 LFOrnd 0.005;
#X floatatom 340 118 5 0 0 0 - - -;
#X obj 212 25 * 10;
#X obj 212 109 pow 0.2;
#X obj 212 130 * 1000;
#X obj 212 151 i;
#X obj 212 172 change;
#X floatatom 167 233 5 0 0 0 - - -;
#X obj 212 194 + 50;
#X msg 268 206 50;
#X msg 425 253 0;
#X msg 455 255 200;
#X obj 383 128 sin;
#X obj 383 149 + 1;
#X obj 383 170 / 2;
#X obj 383 107 * 10;
#X obj 383 233 i;
#X obj 383 254 change;
#X msg 439 288 50;
#X obj 383 212 * 130;
#X msg 383 312 rnd \$1;
#X obj 383 276 + 5;
#X obj 383 191 pow 0.4;
#X floatatom 330 318 5 0 0 0 - - -;
#X obj 383 86 LFOrnd 0.01;
#X obj 215 342 sin;
#X obj 215 300 LFOrnd 0.01;
#X obj 215 363 + 0.5;
#X floatatom 144 395 5 0 0 0 - - -;
#X obj 215 384 clip 0 1;
#X obj 215 321 * 30;
#X obj 215 407 change;
#X obj 543 569 sin;
#X obj 543 527 LFOrnd 0.01;
#X obj 543 548 * 30;
#X obj 543 590 + 1;
#X obj 543 611 / 2;
#X obj 543 632 pow 4;
#X obj 543 653 * -1;
#X obj 543 674 + 1;
#X floatatom 640 666 5 0 0 0 - - -;
#X msg 543 743 filt \$1;
#X obj 543 720 change;
#X obj 882 375 clip 0 1;
#X obj 882 402 change;
#X obj 882 354 + 0.2;
#X obj 543 697 clip 0.96 0.9999;
#X obj 38 38 loadbang;
#X obj 104 166 bng 16 250 50 0 empty empty empty 0 -8 0 10 -262144
-1 -1;
#X msg 115 132 10;
#X msg 147 131 20;
#X obj 38 124 r SEQ_ON;
#X obj 38 81 s SEQ_ON;
#X obj 38 59 1;
#X obj 38 169 metro 10;
#X msg 535 245 0;
#X connect 0 0 126 0;
#X connect 3 0 2 0;
#X connect 4 0 2 0;
#X connect 5 0 4 0;
#X connect 6 0 4 0;
#X connect 7 0 10 0;
#X connect 8 0 2 0;
#X connect 9 0 2 0;
#X connect 10 0 2 0;
#X connect 14 0 46 0;
#X connect 15 0 19 0;
#X connect 15 1 16 0;
#X connect 15 2 17 0;
#X connect 15 3 18 0;
#X connect 16 0 20 0;
#X connect 17 0 21 0;
#X connect 18 0 22 0;
#X connect 19 0 23 0;
#X connect 20 0 23 0;
#X connect 21 0 23 0;
#X connect 22 0 23 0;
#X connect 23 0 2 0;
#X connect 24 0 16 1;
#X connect 25 0 17 1;
#X connect 26 0 18 1;
#X connect 27 0 24 0;
#X connect 27 0 25 0;
#X connect 27 0 26 0;
#X connect 28 0 13 0;
#X connect 28 0 29 0;
#X connect 28 1 12 0;
#X connect 31 0 27 0;
#X connect 32 0 33 0;
#X connect 33 0 15 0;
#X connect 34 0 31 0;
#X connect 35 0 2 0;
#X connect 36 0 35 0;
#X connect 37 0 2 0;
#X connect 38 0 37 0;
#X connect 39 0 37 0;
#X connect 40 0 33 1;
#X connect 41 0 33 1;
#X connect 42 0 37 0;
#X connect 43 0 37 0;
#X connect 44 0 45 0;
#X connect 45 0 46 0;
#X connect 45 1 46 1;
#X connect 46 0 47 0;
#X connect 47 0 2 0;
#X connect 48 0 49 0;
#X connect 49 0 2 0;
#X connect 51 0 46 0;
#X connect 52 0 46 1;
#X connect 53 0 62 0;
#X connect 53 0 63 0;
#X connect 54 0 53 0;
#X connect 55 0 53 0;
#X connect 57 0 51 0;
#X connect 58 0 52 0;
#X connect 59 0 53 0;
#X connect 60 0 53 0;
#X connect 61 0 53 0;
#X connect 62 0 57 0;
#X connect 63 0 58 0;
#X connect 64 0 2 0;
#X connect 65 0 117 0;
#X connect 66 0 65 0;
#X connect 67 0 66 0;
#X connect 69 0 70 0;
#X connect 70 0 71 0;
#X connect 71 0 75 0;
#X connect 72 0 74 0;
#X connect 74 0 69 0;
#X connect 75 0 76 0;
#X connect 76 0 77 0;
#X connect 77 0 78 0;
#X connect 78 0 80 0;
#X connect 80 0 4 0;
#X connect 81 0 4 0;
#X connect 82 0 92 0;
#X connect 83 0 92 0;
#X connect 84 0 85 0;
#X connect 85 0 86 0;
#X connect 86 0 94 0;
#X connect 87 0 84 0;
#X connect 88 0 89 0;
#X connect 89 0 93 0;
#X connect 90 0 92 0;
#X connect 91 0 88 0;
#X connect 92 0 2 0;
#X connect 93 0 92 0;
#X connect 94 0 91 0;
#X connect 96 0 87 0;
#X connect 97 0 99 0;
#X connect 98 0 102 0;
#X connect 99 0 101 0;
#X connect 101 0 103 0;
#X connect 102 0 97 0;
#X connect 103 0 35 0;
#X connect 104 0 107 0;
#X connect 105 0 106 0;
#X connect 106 0 104 0;
#X connect 107 0 108 0;
#X connect 108 0 109 0;
#X connect 109 0 110 0;
#X connect 110 0 111 0;
#X connect 111 0 118 0;
#X connect 113 0 2 0;
#X connect 114 0 113 0;
#X connect 115 0 116 0;
#X connect 116 0 49 0;
#X connect 117 0 115 0;
#X connect 118 0 114 0;
#X connect 119 0 125 0;
#X connect 120 0 28 0;
#X connect 121 0 126 1;
#X connect 122 0 126 1;
#X connect 123 0 0 0;
#X connect 125 0 124 0;
#X connect 126 0 28 0;
#X connect 127 0 33 0;
#X restore 142 178 pd compute_color;
#X obj 50 179 # pof_visu;
#X obj 56 241 pdcontrol;
#X msg 56 220 dir;
#X msg 56 265 \; pd open pof_visu.pd \$1;
#X obj 238 32 tgl 30 0 SEQ_ON SEQ_ON SEQ_ON 0 -8 0 10 -4034 -1 -1 1
1;
#X connect 6 0 8 0;
#X connect 7 0 6 0;
#X coords 0 0 0.00203252 0.00161812 280 45 0;
