#N canvas 174 662 480 300 12;
#N canvas 1020 27 753 915 test 1;
#N canvas 1309 162 450 426 lamp 0;
#X obj 112 144 hsl 80 16 0 255 0 0 empty empty empty -2 -8 0 10 #fc0400 #000000 #000000 0 1;
#X obj 112 163 hsl 80 16 0 255 0 0 empty empty empty -2 -8 0 10 #00fc04 #000000 #000000 0 1;
#X obj 108 119 nbx 3 20 0 149 0 0 empty empty empty 0 -8 0 15 #fcfcfc #000000 #000000 0 256;
#X obj 113 182 hsl 80 16 0 255 0 0 empty empty empty -2 -8 0 10 #0400fc #000000 #000000 0 1;
#X obj 25 268 pack f f f;
#X obj 57 218 t b f;
#X obj 97 217 t b f;
#X obj 25 307 list prepend;
#X obj 144 277 * 3;
#X obj 144 298 + 1;
#X obj 25 353 outlet;
#X obj 201 259 print;
#X obj 139 218 t b f;
#X msg 25 328 c 31 i \$1 c \$2 c \$3 c \$4;
#X connect 0 0 4 0;
#X connect 1 0 5 0;
#X connect 2 0 12 0;
#X connect 3 0 6 0;
#X connect 4 0 7 0;
#X connect 5 0 4 0;
#X connect 5 1 4 1;
#X connect 6 0 4 0;
#X connect 6 1 4 2;
#X connect 7 0 13 0;
#X connect 8 0 9 0;
#X connect 9 0 7 1;
#X connect 12 0 4 0;
#X connect 12 1 7 1;
#X connect 13 0 10 0;
#X coords 0 -1 1 1 100 100 1 100 100;
#X restore 97 51 pd lamp;
#X obj 97 270 fruit/send2 etoile1;
#X floatatom 231 120 5 0 0 0 - - - 0;
#X obj 306 215 metro 50;
#X obj 306 236 tgl 16 0 empty empty empty 0 -8 0 10 #fcfcfc #000000 #000000 0 1;
#X obj 311 186 tgl 16 0 empty empty empty 0 -8 0 10 #fcfcfc #000000 #000000 0 1;
#X floatatom 343 189 5 0 0 0 - - - 0;
#X msg 341 155 100;
#X msg 384 157 50;
#X obj 306 257 + 1;
#X floatatom 351 245 5 0 0 0 - - - 0;
#X obj 477 285 sel 0;
#X obj 450 243 t b b;
#X obj 450 325 f, f 5;
#X obj 450 367 +;
#X obj 450 472 change;
#X obj 449 183 tgl 16 0 empty empty empty 0 -8 0 10 #fcfcfc #000000 #000000 0 1;
#X obj 444 212 metro 20;
#X floatatom 450 493 5 0 0 0 - - - 0;
#X obj 450 453 mod 150;
#X obj 450 410 +;
#X obj 450 432 i;
#X msg 538 369 0;
#X obj 480 410 * 0.995;
#X obj 450 387 * 0.005;
#X obj 477 264 random 20;
#X text 325 15 0-8 : queue;
#X text 325 34 9-20 : branche1G;
#X text 325 51 21-43 : branche2;
#X text 329 69 44-67 : branche3;
#X text 332 86 68-90 : branche4;
#X text 335 104 91-114 : branche5;
#X text 339 119 115-138 : branche6;
#X text 342 133 139-149 : branche1D;
#X obj 163 535 until;
#X obj 163 416 list split 2;
#X obj 163 440 unpack f f;
#X obj 163 464 t f f;
#X obj 163 488 * -1;
#X obj 163 512 +;
#X msg 163 344 9 20 \, 139 149;
#X obj 163 559 i;
#X obj 195 559 + 1;
#X obj 163 585 list append;
#X msg 127 304 c 31 i \$1 c \$2 c \$3 c \$4;
#X msg 266 508 0 149;
#X msg 266 534 \$1 \$2 0 0 0;
#X msg 274 343 21 43 \, 115 138;
#X msg 286 401 44 67 \, 91 114;
#X msg 274 369 \$1 \$2 255 200 150;
#X msg 286 427 \$1 \$2 255 80 0;
#X msg 163 370 \$1 \$2 255 20 0;
#X msg 307 451 68 90;
#X msg 307 477 \$1 \$2 255 0 0;
#X obj 248 158 mod 141;
#X floatatom 206 165 5 0 0 0 - - - 0;
#X msg 195 202 c 32 i \$1;
#X msg 381 619 24;
#X msg 421 619 48;
#X msg 465 621 71;
#X msg 503 618 94;
#X msg 540 618 118;
#X msg 575 616 141;
#X obj 381 662 f;
#X msg 347 621 0;
#X obj 347 592 sel 0 1 2 3 4 5 6, f 36;
#X obj 534 509 i;
#X obj 534 533 + 1;
#X obj 534 557 mod 6;
#X obj 538 456 tgl 19 0 empty empty empty 0 -10 0 12 #fcfcfc #000000 #000000 0 1;
#X obj 534 485 metro 300;
#X obj 480 367 * 0.95;
#X obj 450 346 * 0.05;
#X msg 47 200 c 33 i \$1;
#X obj 37 175 hsl 162 19 0 32768 0 0 empty empty empty -2 -10 0 12 #fcfcfc #000000 #000000 0 1;
#X obj 468 529 print;
#X text 495 34 9;
#X text 493 51 32;
#X text 492 86 79;
#X text 494 103 103;
#X text 494 116 127;
#X text 492 68 56;
#X floatatom 601 65 5 0 0 0 - - - 0;
#X obj 601 112 + 9;
#X obj 572 36 hradio 19 1 0 8 empty empty empty 0 -10 0 12 #fcfcfc #000000 #000000 0;
#X floatatom 601 136 5 0 0 0 - - - 0;
#X obj 601 88 * 23.5;
#X obj 240 711 hsl 162 19 0 255 0 0 empty empty empty -2 -10 0 12 #fcfcfc #000000 #000000 0 1;
#X obj 600 311 * -1;
#X obj 600 335 + 1;
#X obj 600 289 f;
#X msg 603 358 0.05;
#X obj 603 403 * -1;
#X obj 603 427 + 1;
#X obj 603 381 f;
#X obj 477 306 random 400;
#X msg 600 266 0.02;
#X obj 600 242 loadbang;
#X msg 237 735 c 34 i \$1 i \$1 i 256 i \$1 i \$1 i 256;
#X msg 45 824 c 31 i \$1 c 0 c 0 c 255;
#X obj 95 760 random 141;
#X obj 95 784 + 9;
#X obj 100 737 bng 19 250 50 0 empty empty empty 0 -10 0 12 #fcfcfc #000000 #000000;
#X obj 34 69 * 32767;
#X obj 33 17 r param_etoileCrepite-snd;
#X obj 33 43 pow 2;
#X obj 271 769 r param_etoileBoules-snd;
#X obj 271 817 * 20;
#X obj 253 841 f;
#X obj 253 865 until;
#N canvas 112 223 541 649 background 0;
#X obj 263 265 / 141;
#X obj 263 289 * 6.283;
#X obj 263 373 sin;
#X obj 263 397 + 1;
#X obj 263 421 * 0.5;
#X obj 38 597 outlet;
#X obj 263 319 t f f, f 18;
#X obj 263 519 list append 0;
#X msg 263 494 255 \$1;
#X obj 392 424 max 0;
#X obj 392 448 * 1;
#X obj 392 474 pow 3;
#X obj 263 469 t f f;
#X obj 351 496 *;
#X obj 392 376 * 1;
#X obj 392 400 cos;
#X obj 389 348 + 0.125;
#X msg 435 302 0.25;
#X obj 435 324 * 3.14159;
#X obj 263 349 * 6;
#X obj 263 446 * 90;
#X obj 38 156 i;
#X obj 73 155 + 1;
#X msg 38 101 1;
#X msg 72 100 0;
#X obj 38 76 t b f, f 12;
#X msg 119 101 0;
#X obj 106 154 moses 141;
#X obj 38 50 bng 19 250 50 0 empty empty empty 0 -10 0 12 #fcfcfc #000000 #000000;
#X obj 38 219 + 9;
#X obj 166 177 s \$0-gradok;
#X obj 38 188 t f f, f 9;
#X obj 98 213 list prepend 0;
#X obj 38 567 list append;
#X msg 98 262 0 0 0;
#X msg 155 261 255 0 0;
#X obj 435 276 loadbang;
#X obj 249 75 t b f;
#X obj 249 50 hradio 19 1 0 8 empty empty empty 0 -10 0 12 #fcfcfc #000000 #000000 0;
#X obj 392 499 * 0.4;
#X obj 249 19 r param_etoileBackground-snd;
#X obj 98 237 route 0 1 2 3, f 25;
#X msg 184 299 255 255 255;
#X obj 38 128 metro 5;
#X connect 0 0 1 0;
#X connect 1 0 6 0;
#X connect 2 0 3 0;
#X connect 3 0 4 0;
#X connect 4 0 20 0;
#X connect 6 0 19 0;
#X connect 6 1 16 0;
#X connect 7 0 33 1;
#X connect 8 0 7 0;
#X connect 9 0 10 0;
#X connect 10 0 11 0;
#X connect 11 0 39 0;
#X connect 12 0 8 0;
#X connect 12 1 13 0;
#X connect 13 0 7 1;
#X connect 14 0 15 0;
#X connect 15 0 9 0;
#X connect 16 0 14 0;
#X connect 17 0 18 0;
#X connect 18 0 16 1;
#X connect 19 0 2 0;
#X connect 20 0 12 0;
#X connect 21 0 22 0;
#X connect 21 0 31 0;
#X connect 22 0 27 0;
#X connect 23 0 43 0;
#X connect 24 0 43 0;
#X connect 25 0 23 0;
#X connect 25 1 26 0;
#X connect 26 0 21 1;
#X connect 27 0 21 1;
#X connect 27 1 24 0;
#X connect 27 1 30 0;
#X connect 28 0 25 0;
#X connect 29 0 33 0;
#X connect 31 0 29 0;
#X connect 31 1 32 0;
#X connect 32 0 41 0;
#X connect 33 0 5 0;
#X connect 34 0 33 1;
#X connect 35 0 33 1;
#X connect 36 0 17 0;
#X connect 37 0 28 0;
#X connect 37 1 32 1;
#X connect 38 0 37 0;
#X connect 39 0 13 1;
#X connect 40 0 38 0;
#X connect 41 0 34 0;
#X connect 41 1 35 0;
#X connect 41 2 42 0;
#X connect 41 3 0 0;
#X connect 42 0 33 1;
#X connect 43 0 21 0;
#X restore 83 675 pd background;
#X obj 187 763 r \$0-gradok;
#X obj 220 802 b;
#X floatatom 317 852 5 0 0 0 - - - 0;
#X obj 271 793 pow 1;
#X obj 474 165 loadbang;
#X connect 0 0 1 0;
#X connect 2 0 54 0;
#X connect 3 0 4 0;
#X connect 4 0 9 0;
#X connect 5 0 3 0;
#X connect 6 0 3 1;
#X connect 7 0 6 0;
#X connect 8 0 6 0;
#X connect 9 0 56 0;
#X connect 10 0 9 1;
#X connect 11 0 95 0;
#X connect 12 0 13 0;
#X connect 12 1 25 0;
#X connect 13 0 72 0;
#X connect 14 0 24 0;
#X connect 14 0 71 0;
#X connect 15 0 18 0;
#X connect 16 0 17 0;
#X connect 17 0 12 0;
#X connect 18 0 56 0;
#X connect 19 0 15 0;
#X connect 20 0 21 0;
#X connect 20 0 23 0;
#X connect 21 0 19 0;
#X connect 22 0 23 0;
#X connect 23 0 20 1;
#X connect 24 0 20 0;
#X connect 25 0 11 0;
#X connect 34 0 41 0;
#X connect 35 0 36 0;
#X connect 35 1 43 1;
#X connect 36 0 37 0;
#X connect 36 1 39 1;
#X connect 37 0 38 0;
#X connect 37 1 41 1;
#X connect 38 0 39 0;
#X connect 39 0 34 0;
#X connect 40 0 51 0;
#X connect 41 0 42 0;
#X connect 41 0 43 0;
#X connect 42 0 41 1;
#X connect 43 0 44 0;
#X connect 44 0 1 0;
#X connect 45 0 46 0;
#X connect 46 0 35 0;
#X connect 47 0 49 0;
#X connect 48 0 50 0;
#X connect 49 0 35 0;
#X connect 50 0 35 0;
#X connect 51 0 35 0;
#X connect 52 0 53 0;
#X connect 53 0 35 0;
#X connect 54 0 56 0;
#X connect 55 0 56 0;
#X connect 56 0 1 0;
#X connect 57 0 63 0;
#X connect 58 0 63 0;
#X connect 59 0 63 0;
#X connect 60 0 63 0;
#X connect 61 0 63 0;
#X connect 62 0 63 0;
#X connect 63 0 56 0;
#X connect 64 0 63 0;
#X connect 65 0 64 0;
#X connect 65 1 57 0;
#X connect 65 2 58 0;
#X connect 65 3 59 0;
#X connect 65 4 60 0;
#X connect 65 5 61 0;
#X connect 65 6 62 0;
#X connect 66 0 67 0;
#X connect 67 0 68 0;
#X connect 68 0 65 0;
#X connect 68 0 66 1;
#X connect 69 0 70 0;
#X connect 70 0 66 0;
#X connect 71 0 14 1;
#X connect 72 0 14 0;
#X connect 73 0 1 0;
#X connect 74 0 73 0;
#X connect 82 0 86 0;
#X connect 83 0 85 0;
#X connect 84 0 82 0;
#X connect 86 0 83 0;
#X connect 87 0 98 0;
#X connect 88 0 89 0;
#X connect 89 0 71 1;
#X connect 90 0 88 0;
#X connect 90 0 72 1;
#X connect 91 0 94 0;
#X connect 91 0 24 1;
#X connect 92 0 93 0;
#X connect 93 0 23 1;
#X connect 94 0 92 0;
#X connect 95 0 13 1;
#X connect 96 0 90 0;
#X connect 97 0 96 0;
#X connect 98 0 1 0;
#X connect 99 0 1 0;
#X connect 100 0 101 0;
#X connect 101 0 99 0;
#X connect 102 0 100 0;
#X connect 103 0 74 0;
#X connect 104 0 105 0;
#X connect 105 0 103 0;
#X connect 106 0 114 0;
#X connect 107 0 108 1;
#X connect 107 0 113 0;
#X connect 108 0 109 0;
#X connect 109 0 100 0;
#X connect 110 0 44 0;
#X connect 111 0 112 0;
#X connect 112 0 108 0;
#X connect 114 0 107 0;
#X connect 115 0 16 0;
#X restore 241 27 pd test;
#X obj 11 12 fruit/fruit 1 etoile1 101 etoileFw;
#X obj 127 95 fruit/receive etoile1;
#X obj 127 119 route t;
#X floatatom 127 143 5 0 0 0 - - - 0;
#X connect 2 0 3 0;
#X connect 3 0 4 0;
