#N canvas 88 352 617 463 10;
#X obj 145 38 tgl 15 0 empty empty empty 17 7 0 10 #fcfcfc #000000 #000000 0 1;
#X obj 145 79 random 2e+06;
#X obj 145 100 / 1e+06;
#X obj 145 121 - 1;
#X obj 145 58 metro 20;
#X obj 145 165 +;
#X obj 174 165 * 0.9;
#X obj 145 209 +;
#X obj 174 209 * 0.9;
#X obj 145 255 +;
#X obj 174 255 * 0.9;
#X obj 145 307 +;
#X obj 174 306 * 0.9;
#X obj 145 340 pack f 20;
#X msg 205 44 20;
#X obj 249 88 clip 0 1;
#X obj 276 132 * -1;
#X obj 276 154 + 1;
#X obj 249 110 t f f;
#X msg 278 45 0.2;
#X floatatom 252 69 5 0 0 0 - - - 0;
#X msg 249 46 0.1;
#X msg 307 46 0.4;
#X msg 336 45 0.5;
#X obj 443 12 loadbang;
#X obj 443 33 f \$1;
#X obj 443 53 sel 0;
#X obj 470 80 f;
#X obj 484 53 inlet;
#X obj 50 18 r LFOrnd-bang;
#X obj 145 366 line;
#X obj 145 412 outlet;
#X obj 145 143 * 0.1;
#X obj 145 187 * 0.1;
#X obj 145 232 * 0.1;
#X obj 145 281 * 0.1;
#X obj 237 132 f;
#X msg 22 168 0;
#X connect 0 0 4 0;
#X connect 1 0 2 0;
#X connect 2 0 3 0;
#X connect 3 0 32 0;
#X connect 4 0 1 0;
#X connect 5 0 6 0;
#X connect 5 0 33 0;
#X connect 6 0 5 1;
#X connect 7 0 8 0;
#X connect 7 0 34 0;
#X connect 8 0 7 1;
#X connect 9 0 10 0;
#X connect 9 0 35 0;
#X connect 10 0 9 1;
#X connect 11 0 12 0;
#X connect 11 0 13 0;
#X connect 12 0 11 1;
#X connect 13 0 30 0;
#X connect 14 0 4 1;
#X connect 15 0 18 0;
#X connect 16 0 17 0;
#X connect 17 0 6 1;
#X connect 17 0 12 1;
#X connect 17 0 10 1;
#X connect 17 0 8 1;
#X connect 18 0 36 0;
#X connect 18 1 16 0;
#X connect 19 0 20 0;
#X connect 20 0 15 0;
#X connect 21 0 20 0;
#X connect 22 0 20 0;
#X connect 23 0 20 0;
#X connect 24 0 25 0;
#X connect 25 0 26 0;
#X connect 26 1 27 0;
#X connect 27 0 20 0;
#X connect 28 0 27 0;
#X connect 29 0 1 0;
#X connect 30 0 31 0;
#X connect 32 0 5 0;
#X connect 33 0 7 0;
#X connect 34 0 9 0;
#X connect 35 0 11 0;
#X connect 36 0 32 1;
#X connect 36 0 33 1;
#X connect 36 0 34 1;
#X connect 36 0 35 1;
#X connect 37 0 6 0;
#X connect 37 0 8 0;
#X connect 37 0 10 0;
#X connect 37 0 12 0;
