#N canvas 400 81 965 662 12;
#X obj 136 159 random 1000;
#X obj 136 183 / 1000;
#X obj 136 261 t f f;
#X obj 136 412 pack f f f, f 17;
#X obj 136 371 * 255;
#X obj 193 388 * 255;
#X obj 252 374 * 255;
#X obj 441 364 s couleur;
#X obj 136 237 +;
#X obj 136 98 random 5;
#X obj 136 129 sel 0, f 13;
#X obj 136 212 * 0.1;
#X obj 168 237 * 0.9;
#X obj 226 160 b;
#X obj 187 26 r lumParams;
#X obj 257 188 * -1;
#X obj 257 212 + 1;
#X obj 49 62 t b b;
#X obj 49 106 random 0;
#X obj 49 130 sel 1;
#X msg 49 154 255 255 255;
#X obj 49 28 r tacheMetro;
#X obj 136 647 colset \$2 \$1;
#X obj 441 22 r tacheMetro2;
#X obj 441 46 f \$1;
#X obj 441 88 +;
#X obj 187 50 route rnd filt rndCrepit rot;
#X obj 441 112 t f f f, f 25;
#X obj 441 148 mod 5;
#X obj 527 138 + 1;
#X obj 527 162 mod 5;
#X obj 441 189 colget \$2;
#X obj 613 137 wrap;
#X obj 527 188 colget \$2;
#X obj 441 220 colmix, f 25;
#X obj 441 336 list prepend \$2 \$1;
#X msg 504 53 4;
#X obj 330 83 route \$2 -1;
#X obj 136 435 t a b;
#X obj 168 485 colget \$2;
#X obj 317 369 loadbang;
#X obj 317 417 - 1;
#X obj 317 441 max 0;
#X obj 168 459 f \$1;
#X obj 317 393 f \$2;
#X obj 136 606 colmix, f 24;
#X obj 168 568 pack f f f, f 14;
#X obj 301 581 *;
#X obj 335 580 > 0;
#X obj 380 397 route uptime upmix;
#X obj 618 26 inlet;
#X obj 168 515 unpack f f f;
#X obj 86 672 print;
#X obj 678 106 - \$1;
#X obj 678 219 abs;
#X obj 678 162 fmod 5;
#X obj 678 134 + 2.5;
#X obj 678 192 - 2.5;
#X obj 678 243 clip 0 1;
#X obj 678 267 * -1;
#X obj 678 291 + 1;
#X msg 678 397 \$1 \$1 \$1;
#X obj 745 220 abs;
#X obj 745 242 clip 0 1;
#X obj 745 266 * -1;
#X obj 745 290 + 1;
#X obj 745 109 - \$2;
#X obj 678 82 unpack f f;
#X obj 678 316 *, f 7;
#X obj 678 341 * 350;
#X obj 678 369 clip 0 255;
#X obj 745 139 + 2;
#X obj 745 165 fmod 4;
#X obj 745 191 - 2;
#X obj 678 57 route point pointMix pointGain, f 35;
#X obj 168 544 pipe f f f 250;
#X obj 441 308 colmix 2, f 25;
#X obj 193 287 - 0.5;
#X obj 193 311 * 2;
#X obj 193 337 max 0;
#X obj 193 363 * 1;
#X obj 252 268 - 0.5;
#X obj 252 292 * 2;
#X obj 252 318 max 0;
#X obj 252 347 pow 2;
#X connect 0 0 1 0;
#X connect 1 0 11 0;
#X connect 2 0 4 0;
#X connect 2 1 77 0;
#X connect 3 0 38 0;
#X connect 4 0 3 0;
#X connect 5 0 3 1;
#X connect 6 0 3 2;
#X connect 8 0 2 0;
#X connect 8 0 12 0;
#X connect 9 0 10 0;
#X connect 10 0 0 0;
#X connect 10 1 13 0;
#X connect 11 0 8 0;
#X connect 12 0 8 1;
#X connect 13 0 11 0;
#X connect 14 0 26 0;
#X connect 15 0 16 0;
#X connect 16 0 11 1;
#X connect 17 0 18 0;
#X connect 17 1 9 0;
#X connect 18 0 19 0;
#X connect 19 0 20 0;
#X connect 20 0 38 0;
#X connect 21 0 17 0;
#X connect 23 0 24 0;
#X connect 24 0 25 0;
#X connect 25 0 27 0;
#X connect 26 0 9 1;
#X connect 26 1 12 1;
#X connect 26 1 15 0;
#X connect 26 2 18 1;
#X connect 26 3 37 0;
#X connect 26 4 49 0;
#X connect 26 4 74 0;
#X connect 27 0 28 0;
#X connect 27 1 29 0;
#X connect 27 2 32 0;
#X connect 28 0 31 0;
#X connect 29 0 30 0;
#X connect 30 0 33 0;
#X connect 31 0 34 0;
#X connect 32 0 34 2;
#X connect 33 0 34 1;
#X connect 34 0 76 0;
#X connect 35 0 7 0;
#X connect 36 0 24 1;
#X connect 37 0 25 1;
#X connect 37 1 25 1;
#X connect 38 0 45 0;
#X connect 38 1 43 0;
#X connect 39 0 51 0;
#X connect 40 0 44 0;
#X connect 41 0 42 0;
#X connect 42 0 39 1;
#X connect 43 0 39 0;
#X connect 44 0 41 0;
#X connect 44 0 48 0;
#X connect 45 0 22 0;
#X connect 46 0 45 1;
#X connect 47 0 45 2;
#X connect 48 0 47 1;
#X connect 49 0 75 3;
#X connect 49 1 47 0;
#X connect 51 0 75 0;
#X connect 51 1 75 1;
#X connect 51 2 75 2;
#X connect 53 0 56 0;
#X connect 54 0 58 0;
#X connect 55 0 57 0;
#X connect 56 0 55 0;
#X connect 57 0 54 0;
#X connect 58 0 59 0;
#X connect 59 0 60 0;
#X connect 60 0 68 0;
#X connect 61 0 76 1;
#X connect 62 0 63 0;
#X connect 63 0 64 0;
#X connect 64 0 65 0;
#X connect 65 0 68 1;
#X connect 66 0 71 0;
#X connect 67 0 53 0;
#X connect 67 1 66 0;
#X connect 68 0 69 0;
#X connect 69 0 70 0;
#X connect 70 0 61 0;
#X connect 71 0 72 0;
#X connect 72 0 73 0;
#X connect 73 0 62 0;
#X connect 74 0 67 0;
#X connect 74 1 76 2;
#X connect 74 2 69 1;
#X connect 75 0 46 0;
#X connect 75 1 46 1;
#X connect 75 2 46 2;
#X connect 76 0 35 0;
#X connect 77 0 78 0;
#X connect 78 0 79 0;
#X connect 79 0 80 0;
#X connect 79 0 81 0;
#X connect 80 0 5 0;
#X connect 81 0 82 0;
#X connect 82 0 83 0;
#X connect 83 0 84 0;
#X connect 84 0 6 0;
