#N canvas 979 14 816 606 12;
#X declare -lib pof;
#X obj 27 27 declare -lib pof;
#X obj 167 78 pofhead;
#X obj 167 463 s etageHead;
#X obj 267 59 tgl 19 0 empty empty empty 0 -10 0 12 #fcfcfc #000000 #000000 0 1;
#X obj 167 194 t a a, f 21;
#X obj 378 240 route move down, f 25;
#X obj 193 111 pofdepthtest 0;
#X obj 378 264 t a a, f 12;
#X obj 378 289 unpack f f;
#X obj 459 289 unpack f f;
#X obj 547 289 unpack f f;
#X obj 459 332 -;
#X obj 568 331 -;
#X obj 459 376 +;
#X obj 567 379 +;
#X obj 311 218 poftouch 1e+06 1e+06;
#X obj 567 355 * -1;
#X obj 567 403 clip 0 180;
#X obj 167 293 pofrotate x 90;
#X floatatom 567 427 5 0 0 0 - - - 0;
#X obj 167 418 pofrotate z;
#X obj 459 354 * -1;
#X obj 459 400 clip -360 360;
#X obj 112 497 clone pofEtage 4;
#X obj 167 244 poftranslate 0 60;
#X connect 1 0 4 0;
#X connect 3 0 6 0;
#X connect 4 0 24 0;
#X connect 4 1 15 0;
#X connect 5 0 7 0;
#X connect 5 1 10 0;
#X connect 7 0 8 0;
#X connect 7 1 9 0;
#X connect 8 0 11 1;
#X connect 8 1 12 1;
#X connect 9 0 11 0;
#X connect 9 1 12 0;
#X connect 10 0 11 1;
#X connect 10 1 12 1;
#X connect 11 0 21 0;
#X connect 12 0 16 0;
#X connect 13 0 22 0;
#X connect 14 0 17 0;
#X connect 15 1 5 0;
#X connect 16 0 14 0;
#X connect 17 0 14 1;
#X connect 17 0 18 1;
#X connect 17 0 19 0;
#X connect 18 0 20 0;
#X connect 20 0 2 0;
#X connect 21 0 13 0;
#X connect 22 0 13 1;
#X connect 22 0 20 1;
#X connect 24 0 18 0;
