#N canvas 549 81 427 319 10;
#X declare -lib pof;
#X obj 17 15 declare -lib pof;
#X obj 18 38 pofhead;
#X obj 17 195 s etageHead;
#X obj 17 58 t a a;
#X obj 161 98 route move down, f 25;
#X obj 161 122 t a a, f 12;
#X obj 161 147 unpack f f;
#X obj 242 147 unpack f f;
#X obj 330 147 unpack f f;
#X obj 242 190 -;
#X obj 351 189 -;
#X obj 242 234 +;
#X obj 350 237 +;
#X obj 44 78 poftouch 1e+06 1e+06;
#X obj 350 213 * -1;
#X obj 350 261 clip 0 180;
#X obj 17 137 pofrotate x 90;
#X floatatom 350 285 5 0 0 0 - - -;
#X obj 17 166 pofrotate z;
#X obj 242 212 * -1;
#X obj 242 258 clip -360 360;
#X obj 15 271 clone pofEtage 4;
#X obj 17 108 poftranslate 0 60;
#X connect 1 0 3 0;
#X connect 3 0 22 0;
#X connect 3 1 13 0;
#X connect 4 0 5 0;
#X connect 4 1 8 0;
#X connect 5 0 6 0;
#X connect 5 1 7 0;
#X connect 6 0 9 1;
#X connect 6 1 10 1;
#X connect 7 0 9 0;
#X connect 7 1 10 0;
#X connect 8 0 9 1;
#X connect 8 1 10 1;
#X connect 9 0 19 0;
#X connect 10 0 14 0;
#X connect 11 0 20 0;
#X connect 12 0 15 0;
#X connect 13 1 4 0;
#X connect 14 0 12 0;
#X connect 15 0 12 1;
#X connect 15 0 16 1;
#X connect 15 0 17 0;
#X connect 16 0 18 0;
#X connect 18 0 2 0;
#X connect 19 0 11 0;
#X connect 20 0 11 1;
#X connect 20 0 18 1;
#X connect 22 0 16 0;
