#N canvas 1282 250 577 465 12;
#X obj 52 14 inlet;
#X obj 169 38 r etageHead-\$2;
#X obj 169 159 pofrotate;
#X obj 228 64 loadbang;
#X obj 228 88 f \$1;
#X obj 228 112 / 5;
#X obj 228 136 * 360;
#X obj 169 183 poftranslate 100, f 31;
#X obj 368 2 loadbang;
#X obj 368 26 f \$2;
#X obj 169 334 pofimage touch.png 200;
#X obj 169 305 pofcolor 1 1 1 1, f 23;
#X obj 455 51 r couleur;
#X obj 455 75 route \$2;
#X obj 455 99 route \$1;
#X obj 208 250 unpack f f f;
#X obj 368 103 /;
#X obj 368 51 + 2;
#X msg 368 77 300 \$1;
#X obj 208 278 / 255;
#X obj 248 278 / 255;
#X obj 288 278 / 255;
#X floatatom 324 224 5 0 0 0 - - - 0;
#X obj 169 219 pofrotate y 25;
#X obj 297 104 + 150;
#X obj 297 80 * -40;
#X obj 317 136 * 3;
#X connect 1 0 2 0;
#X connect 2 0 7 0;
#X connect 3 0 4 0;
#X connect 4 0 5 0;
#X connect 5 0 6 0;
#X connect 6 0 2 1;
#X connect 7 0 23 0;
#X connect 8 0 9 0;
#X connect 9 0 25 0;
#X connect 11 0 10 0;
#X connect 12 0 13 0;
#X connect 13 0 14 0;
#X connect 14 0 15 0;
#X connect 15 0 19 0;
#X connect 15 1 20 0;
#X connect 15 2 21 0;
#X connect 16 0 7 1;
#X connect 16 0 26 0;
#X connect 17 0 18 0;
#X connect 18 0 16 0;
#X connect 19 0 11 1;
#X connect 20 0 11 2;
#X connect 21 0 11 3;
#X connect 22 0 23 1;
#X connect 23 0 11 0;
#X connect 24 0 7 1;
#X connect 24 0 26 0;
#X connect 25 0 24 0;
#X connect 26 0 10 1;
