#N canvas 146 235 330 194 12;
#X obj 42 29 inlet rgb0;
#X obj 42 53 unpack f f f;
#X obj 42 107 pack f f f, f 12;
#X obj 42 131 outlet;
#X obj 165 29 inlet gain;
#X obj 42 81 * \$1;
#X obj 82 81 * \$1;
#X obj 123 82 * \$1;
#X connect 0 0 1 0;
#X connect 1 0 5 0;
#X connect 1 1 6 0;
#X connect 1 2 7 0;
#X connect 2 0 3 0;
#X connect 4 0 5 1;
#X connect 4 0 6 1;
#X connect 4 0 7 1;
#X connect 5 0 2 0;
#X connect 6 0 2 1;
#X connect 7 0 2 2;
