#N canvas 79 136 334 338 12;
#X text 40 15 [colget NAME];
#X obj 43 51 inlet num;
#X obj 43 244 pack f f f;
#X obj 43 268 outlet rgb;
#X obj 112 169 tabread B-\$1;
#X obj 76 195 tabread G-\$1;
#X obj 43 220 tabread R-\$1;
#X obj 136 44 inlet setname;
#X msg 136 72 set R-\$1;
#X msg 152 96 set G-\$1;
#X msg 173 123 set B-\$1;
#X connect 1 0 4 0;
#X connect 1 0 5 0;
#X connect 1 0 6 0;
#X connect 2 0 3 0;
#X connect 4 0 2 2;
#X connect 5 0 2 1;
#X connect 6 0 2 0;
#X connect 7 0 8 0;
#X connect 7 0 9 0;
#X connect 7 0 10 0;
#X connect 8 0 6 0;
#X connect 9 0 5 0;
#X connect 10 0 4 0;
