#N canvas 146 208 602 382 12;
#X obj 185 27 inlet rgb1;
#X obj 42 29 inlet rgb0;
#X obj 379 26 inlet mix[0-1];
#X obj 42 53 unpack f f f;
#X obj 379 74 t f f;
#X obj 141 85 * -1;
#X obj 379 50 clip 0 1;
#X obj 185 51 unpack f f f;
#X obj 185 227 *;
#X obj 225 227 *;
#X obj 266 228 *;
#X obj 42 301 pack f f f, f 12;
#X obj 42 325 outlet;
#X obj 42 265 +;
#X obj 82 265 +;
#X obj 123 266 +;
#X obj 42 229 * 1;
#X obj 82 229 * 1;
#X obj 123 230 * 1;
#X obj 297 163 * 2;
#X obj 297 189 clip 0 1;
#X obj 141 110 + 1;
#X obj 141 144 * 2;
#X obj 141 177 clip 0 1;
#X connect 0 0 7 0;
#X connect 1 0 3 0;
#X connect 2 0 6 0;
#X connect 3 0 16 0;
#X connect 3 1 17 0;
#X connect 3 2 18 0;
#X connect 4 0 5 0;
#X connect 4 1 19 0;
#X connect 5 0 21 0;
#X connect 6 0 4 0;
#X connect 7 0 8 0;
#X connect 7 1 9 0;
#X connect 7 2 10 0;
#X connect 8 0 13 1;
#X connect 9 0 14 1;
#X connect 10 0 15 1;
#X connect 11 0 12 0;
#X connect 13 0 11 0;
#X connect 14 0 11 1;
#X connect 15 0 11 2;
#X connect 16 0 13 0;
#X connect 17 0 14 0;
#X connect 18 0 15 0;
#X connect 19 0 20 0;
#X connect 20 0 8 1;
#X connect 20 0 9 1;
#X connect 20 0 10 1;
#X connect 21 0 22 0;
#X connect 22 0 23 0;
#X connect 23 0 16 1;
#X connect 23 0 17 1;
#X connect 23 0 18 1;
