#N canvas 214 356 409 241 12;
#X text 68 19 [colset NAME [NUM]];
#X obj 50 62 inlet rgb;
#X obj 207 63 inlet num;
#X obj 50 86 unpack f f f;
#X obj 305 64 loadbang;
#X obj 305 88 f \$2;
#X obj 131 117 tabwrite B-\$1;
#X obj 90 139 tabwrite G-\$1;
#X obj 50 161 tabwrite R-\$1;
#X connect 1 0 3 0;
#X connect 2 0 6 1;
#X connect 2 0 7 1;
#X connect 2 0 8 1;
#X connect 3 0 8 0;
#X connect 3 1 7 0;
#X connect 3 2 6 0;
#X connect 4 0 5 0;
#X connect 5 0 6 1;
#X connect 5 0 7 1;
#X connect 5 0 8 1;
